<svg xmlns="http://www.w3.org/2000/svg" xmlns:xlink="http://www.w3.org/1999/xlink" width="150" zoomAndPan="magnify" viewBox="0 0 112.5 37.5" height="50" preserveAspectRatio="xMidYMid meet" version="1.0"><defs><clipPath id="49bef4dc56"><path d="M 50 1 L 61 1 L 61 35 L 50 35 Z M 50 1 " clip-rule="nonzero"/></clipPath><clipPath id="9ca9687ac5"><path d="M 53.167969 1.570312 L 62 2.492188 L 58.550781 35.617188 L 49.71875 34.699219 Z M 53.167969 1.570312 " clip-rule="nonzero"/></clipPath><clipPath id="bd3af1b425"><path d="M 53.167969 1.570312 L 62 2.492188 L 58.550781 35.617188 L 49.71875 34.699219 Z M 53.167969 1.570312 " clip-rule="nonzero"/></clipPath></defs><g clip-path="url(#49bef4dc56)"><g clip-path="url(#9ca9687ac5)"><g clip-path="url(#bd3af1b425)"><path fill="#ffffff" d="M 57.140625 24.886719 C 57.234375 24.753906 57.394531 24.558594 57.535156 24.390625 C 57.671875 24.222656 57.789062 24.074219 57.882812 23.96875 C 57.972656 23.859375 58.039062 23.792969 58.054688 23.792969 C 58.074219 23.789062 58.054688 23.847656 57.96875 23.96875 C 57.886719 24.085938 57.738281 24.265625 57.597656 24.445312 C 57.449219 24.621094 57.300781 24.796875 57.199219 24.925781 C 57.140625 25.003906 57.097656 25.066406 57.066406 25.109375 C 57.042969 25.1875 57.019531 25.265625 56.996094 25.339844 C 56.9375 25.515625 56.882812 25.679688 56.824219 25.824219 C 56.886719 25.75 56.957031 25.671875 57.027344 25.597656 C 57.222656 25.40625 57.460938 25.21875 57.75 24.976562 C 58.042969 24.738281 58.390625 24.449219 58.707031 24.09375 C 59.023438 23.738281 59.304688 23.316406 59.519531 22.9375 C 59.738281 22.5625 59.875 22.222656 59.996094 21.898438 C 60.121094 21.570312 60.21875 21.257812 60.296875 20.921875 C 60.367188 20.582031 60.410156 20.222656 60.417969 20.015625 C 60.417969 19.894531 60.410156 19.828125 60.394531 19.796875 C 60.382812 19.832031 60.375 19.875 60.363281 19.925781 C 60.320312 20.089844 60.253906 20.320312 60.191406 20.5 C 60.128906 20.679688 60.074219 20.8125 60.03125 20.890625 C 59.992188 20.964844 59.957031 20.976562 59.953125 20.960938 C 59.953125 20.945312 59.976562 20.898438 60.011719 20.8125 C 60.046875 20.726562 60.085938 20.601562 60.136719 20.441406 C 60.191406 20.289062 60.257812 20.097656 60.292969 19.945312 C 60.3125 19.878906 60.324219 19.820312 60.332031 19.769531 C 60.300781 19.789062 60.265625 19.855469 60.199219 19.945312 C 60.128906 20.046875 60.019531 20.179688 59.808594 20.429688 C 59.597656 20.671875 59.28125 21.027344 58.96875 21.425781 C 58.664062 21.816406 58.363281 22.25 58.113281 22.605469 C 57.085938 24.058594 57.554688 22.910156 57.238281 24.441406 C 57.203125 24.597656 57.164062 24.761719 57.121094 24.921875 C 57.128906 24.914062 57.132812 24.902344 57.140625 24.886719 Z M 58.347656 26.054688 C 58.316406 26.109375 58.28125 26.167969 58.246094 26.230469 C 58.140625 26.40625 57.992188 26.613281 57.886719 26.78125 C 57.78125 26.941406 57.722656 27.058594 57.707031 27.113281 C 57.6875 27.164062 57.707031 27.152344 57.78125 27.054688 C 57.855469 26.953125 57.972656 26.769531 58.089844 26.589844 C 58.210938 26.40625 58.332031 26.230469 58.40625 26.113281 L 58.414062 26.097656 C 58.382812 26.167969 58.339844 26.257812 58.289062 26.371094 C 58.148438 26.664062 57.921875 27.105469 57.675781 27.511719 C 57.429688 27.910156 57.164062 28.269531 56.863281 28.597656 C 56.566406 28.929688 56.234375 29.226562 55.898438 29.492188 C 55.566406 29.761719 55.234375 30.003906 54.824219 30.375 C 54.410156 30.746094 53.925781 31.246094 53.449219 31.769531 C 52.96875 32.300781 52.496094 32.855469 52.101562 33.304688 C 51.710938 33.75 51.394531 34.089844 51.179688 34.289062 C 50.96875 34.484375 50.859375 34.539062 50.75 34.53125 C 50.644531 34.527344 50.535156 34.457031 50.464844 34.398438 C 50.386719 34.339844 50.351562 34.277344 50.410156 34.21875 C 50.46875 34.152344 50.628906 34.078125 51.019531 33.75 C 51.40625 33.417969 52.03125 32.832031 52.472656 32.378906 C 52.910156 31.933594 53.164062 31.628906 53.386719 31.289062 C 53.601562 30.953125 53.832031 30.550781 53.929688 30.203125 C 53.96875 30.0625 53.992188 29.929688 54.003906 29.796875 C 54.011719 29.765625 54.023438 29.730469 54.035156 29.691406 C 54.046875 29.609375 54.0625 29.507812 54.070312 29.40625 C 54.078125 29.300781 54.085938 29.195312 54.085938 29.035156 C 54.09375 28.875 54.09375 28.671875 54.09375 28.480469 C 54.097656 28.289062 54.09375 28.121094 54.066406 27.894531 C 54.035156 27.675781 53.976562 27.394531 53.933594 27.230469 C 53.894531 27.058594 53.875 27 53.863281 27 C 53.851562 26.996094 53.855469 27.054688 53.871094 27.164062 C 53.890625 27.28125 53.914062 27.441406 53.945312 27.648438 C 53.972656 27.855469 53.996094 28.101562 53.996094 28.398438 C 54 28.671875 53.984375 28.992188 53.972656 29.246094 C 53.964844 29.21875 53.960938 29.191406 53.957031 29.171875 C 53.894531 28.78125 53.726562 28.328125 53.539062 27.871094 C 53.347656 27.410156 53.105469 26.945312 52.878906 26.410156 C 52.644531 25.875 52.414062 25.273438 52.265625 24.535156 C 52.117188 23.796875 52.046875 22.921875 52.007812 22.328125 C 51.960938 21.738281 51.9375 21.433594 51.921875 21.261719 L 51.917969 21.234375 C 51.953125 21.359375 52 21.507812 52.050781 21.648438 C 52.132812 21.878906 52.214844 22.085938 52.269531 22.28125 C 52.332031 22.476562 52.375 22.667969 52.398438 22.765625 C 52.417969 22.867188 52.421875 22.875 52.4375 22.832031 C 52.445312 22.792969 52.453125 22.707031 52.410156 22.492188 C 52.363281 22.285156 52.257812 21.960938 52.175781 21.691406 C 52.132812 21.550781 52.09375 21.429688 52.058594 21.328125 C 52.136719 21.464844 52.253906 21.660156 52.441406 21.902344 C 52.722656 22.28125 53.164062 22.78125 53.5 23.261719 C 53.835938 23.742188 54.070312 24.199219 54.234375 24.679688 C 54.398438 25.15625 54.484375 25.660156 54.519531 26.191406 C 54.554688 26.722656 54.53125 27.296875 54.484375 27.769531 C 54.433594 28.238281 54.359375 28.617188 54.289062 28.929688 C 54.226562 29.246094 54.171875 29.507812 54.152344 29.703125 C 54.132812 29.898438 54.144531 30.035156 54.199219 30.082031 C 54.253906 30.128906 54.351562 30.085938 54.484375 29.910156 C 54.609375 29.726562 54.773438 29.410156 55.019531 28.871094 C 55.183594 28.519531 55.375 28.078125 55.550781 27.660156 C 55.566406 27.621094 55.59375 27.574219 55.628906 27.5 C 55.703125 27.367188 55.804688 27.167969 55.9375 26.929688 C 56.070312 26.695312 56.230469 26.421875 56.40625 26.070312 C 56.582031 25.722656 56.773438 25.296875 56.886719 24.976562 C 56.960938 24.792969 57 24.644531 57.027344 24.53125 C 57.058594 24.433594 57.082031 24.316406 57.113281 24.109375 C 57.152344 23.847656 57.199219 23.4375 57.226562 22.984375 C 57.242188 22.628906 57.234375 22.339844 57.296875 21.980469 C 57.328125 21.78125 57.394531 21.5 57.460938 21.136719 C 57.527344 20.773438 57.597656 20.324219 57.636719 20.035156 C 57.6875 19.675781 57.695312 19.355469 57.714844 18.980469 C 57.734375 18.386719 57.714844 17.785156 57.75 17.203125 C 57.753906 17.0625 57.773438 16.890625 57.792969 16.671875 C 57.820312 16.460938 57.851562 16.207031 57.886719 15.839844 C 57.925781 15.34375 57.992188 14.757812 57.988281 14.269531 C 57.984375 13.859375 57.921875 13.339844 57.859375 12.917969 C 57.792969 12.496094 57.722656 12.171875 57.65625 11.878906 C 57.605469 11.652344 57.550781 11.429688 57.503906 11.199219 C 57.449219 10.9375 57.386719 10.675781 57.335938 10.40625 C 57.28125 10.117188 57.226562 9.789062 57.152344 9.496094 C 57.121094 9.359375 57.0625 9.15625 56.964844 8.855469 C 56.871094 8.558594 56.734375 8.167969 56.578125 7.789062 C 56.421875 7.410156 56.242188 7.046875 56.003906 6.65625 C 55.765625 6.257812 55.472656 5.832031 55.144531 5.425781 C 54.816406 5.011719 54.460938 4.617188 54.183594 4.257812 C 53.914062 3.902344 53.71875 3.582031 53.585938 3.277344 C 53.453125 2.972656 53.375 2.683594 53.320312 2.4375 C 53.269531 2.1875 53.242188 1.984375 53.207031 1.847656 C 53.1875 1.78125 53.167969 1.730469 53.15625 1.691406 C 53.21875 1.761719 53.300781 1.839844 53.378906 1.925781 C 53.492188 2.035156 53.597656 2.160156 53.6875 2.261719 C 53.769531 2.363281 53.832031 2.453125 53.878906 2.5 C 53.929688 2.550781 53.964844 2.5625 53.964844 2.539062 C 53.960938 2.519531 53.917969 2.46875 53.832031 2.355469 C 53.742188 2.242188 53.609375 2.066406 53.492188 1.9375 C 53.378906 1.800781 53.277344 1.699219 53.199219 1.621094 C 53.253906 1.625 53.355469 1.664062 53.519531 1.738281 C 53.75 1.84375 54.117188 2.027344 54.453125 2.285156 C 54.78125 2.546875 55.082031 2.878906 55.304688 3.203125 C 55.523438 3.527344 55.667969 3.847656 55.800781 4.3125 C 55.933594 4.777344 56.058594 5.386719 56.171875 5.90625 C 56.214844 6.105469 56.261719 6.292969 56.300781 6.464844 C 56.214844 6.246094 56.109375 5.992188 56.015625 5.796875 C 55.886719 5.535156 55.792969 5.394531 55.714844 5.277344 C 55.632812 5.160156 55.570312 5.070312 55.546875 5.050781 C 55.527344 5.03125 55.550781 5.074219 55.609375 5.183594 C 55.675781 5.292969 55.777344 5.46875 55.878906 5.6875 C 55.988281 5.90625 56.085938 6.164062 56.179688 6.394531 C 56.273438 6.605469 56.359375 6.789062 56.417969 6.90625 C 56.449219 7.007812 56.472656 7.101562 56.5 7.195312 C 56.605469 7.542969 56.699219 7.8125 56.777344 8.035156 C 56.851562 8.265625 56.902344 8.453125 56.953125 8.628906 C 57 8.804688 57.050781 8.972656 57.09375 9.101562 C 57.140625 9.226562 57.179688 9.335938 57.21875 9.472656 C 57.289062 9.71875 57.375 10.03125 57.433594 10.277344 C 57.542969 10.691406 57.539062 10.828125 57.597656 11.199219 C 57.617188 11.320312 57.644531 11.480469 57.675781 11.625 C 57.738281 11.890625 57.8125 12.125 57.875 12.421875 C 57.9375 12.71875 58.015625 13.160156 58.0625 13.605469 C 58.109375 14.054688 58.136719 14.496094 58.125 14.90625 C 58.109375 15.546875 57.957031 16.160156 57.890625 16.796875 C 57.871094 17.050781 57.855469 17.296875 57.84375 17.542969 C 57.832031 17.789062 57.816406 18.050781 57.808594 18.296875 C 57.789062 18.679688 57.785156 19.097656 57.765625 19.429688 C 57.753906 19.753906 57.734375 20.035156 57.691406 20.394531 C 57.644531 20.753906 57.585938 21.125 57.542969 21.378906 C 57.5 21.632812 57.4375 21.890625 57.394531 22.148438 C 57.359375 22.375 57.34375 22.648438 57.328125 22.859375 C 57.292969 23.320312 57.296875 23.707031 57.203125 24.175781 C 57.140625 24.488281 57.039062 24.863281 56.941406 25.179688 C 56.839844 25.496094 56.75 25.765625 56.679688 25.9375 C 56.546875 26.28125 56.328125 26.613281 56.160156 26.949219 C 56.035156 27.1875 55.925781 27.414062 55.832031 27.613281 C 55.628906 28.070312 55.695312 28.117188 55.398438 28.585938 C 55.300781 28.738281 55.238281 28.859375 55.128906 29.078125 C 55.019531 29.300781 54.902344 29.5625 54.816406 29.742188 C 54.734375 29.925781 54.683594 30.027344 54.660156 30.082031 C 54.640625 30.144531 54.648438 30.160156 54.65625 30.171875 C 54.667969 30.183594 54.671875 30.183594 54.6875 30.175781 C 54.703125 30.164062 54.734375 30.136719 54.757812 30.101562 C 54.765625 30.09375 54.765625 30.078125 54.773438 30.070312 C 54.777344 30.070312 54.777344 30.0625 54.777344 30.0625 C 54.820312 30.042969 54.917969 29.953125 55.066406 29.84375 C 55.210938 29.734375 55.410156 29.605469 55.5625 29.496094 C 55.714844 29.390625 55.816406 29.300781 55.90625 29.21875 C 56 29.132812 56.082031 29.042969 56.035156 29.070312 C 55.992188 29.089844 55.828125 29.230469 55.605469 29.398438 C 55.378906 29.5625 55.09375 29.761719 54.957031 29.855469 C 54.890625 29.894531 54.855469 29.917969 54.832031 29.925781 C 54.867188 29.851562 54.933594 29.75 55.015625 29.574219 C 55.09375 29.402344 55.214844 29.15625 55.355469 28.910156 C 55.492188 28.667969 55.675781 28.371094 55.769531 28.25 C 55.871094 28.128906 55.871094 28.113281 55.917969 28.066406 C 56.03125 27.964844 56.195312 27.8125 56.410156 27.621094 C 56.691406 27.371094 57.070312 27.066406 57.375 26.835938 C 57.683594 26.609375 57.921875 26.457031 58.09375 26.308594 C 58.199219 26.214844 58.28125 26.132812 58.347656 26.054688 Z M 57.574219 5.433594 C 57.605469 5.527344 57.667969 5.683594 57.703125 5.84375 C 57.738281 5.996094 57.75 6.148438 57.757812 6.277344 C 57.765625 6.402344 57.769531 6.5 57.773438 6.570312 C 57.78125 6.644531 57.792969 6.675781 57.808594 6.683594 C 57.816406 6.6875 57.824219 6.664062 57.824219 6.570312 C 57.824219 6.476562 57.816406 6.320312 57.796875 6.15625 C 57.777344 5.996094 57.746094 5.824219 57.71875 5.699219 C 57.695312 5.613281 57.671875 5.542969 57.65625 5.496094 C 57.699219 5.550781 57.761719 5.636719 57.839844 5.773438 C 57.945312 5.957031 58.082031 6.230469 58.1875 6.570312 C 58.292969 6.914062 58.367188 7.335938 58.375 7.707031 C 58.382812 8.074219 58.328125 8.394531 58.257812 8.699219 C 58.1875 8.996094 58.109375 9.273438 58.027344 9.507812 C 57.945312 9.738281 57.863281 9.925781 57.789062 10.109375 C 57.710938 10.296875 57.648438 10.476562 57.613281 10.605469 C 57.605469 10.617188 57.605469 10.625 57.601562 10.640625 C 57.601562 10.621094 57.597656 10.605469 57.59375 10.589844 C 57.585938 10.566406 57.582031 10.539062 57.574219 10.519531 C 57.578125 10.484375 57.582031 10.441406 57.582031 10.394531 C 57.59375 10.28125 57.609375 10.148438 57.636719 9.964844 C 57.660156 9.78125 57.707031 9.542969 57.730469 9.378906 C 57.757812 9.214844 57.769531 9.128906 57.769531 9.09375 C 57.761719 9.054688 57.746094 9.074219 57.722656 9.140625 C 57.699219 9.210938 57.683594 9.339844 57.644531 9.558594 C 57.609375 9.777344 57.566406 10.082031 57.550781 10.289062 C 57.546875 10.328125 57.550781 10.367188 57.546875 10.398438 C 57.324219 9.457031 57.265625 8.46875 57.324219 7.503906 C 57.347656 7.125 57.417969 6.753906 57.472656 6.464844 C 57.53125 6.175781 57.570312 5.972656 57.582031 5.808594 C 57.59375 5.644531 57.582031 5.519531 57.574219 5.457031 C 57.574219 5.445312 57.570312 5.433594 57.570312 5.429688 Z M 53.515625 6.527344 C 53.65625 6.59375 53.890625 6.710938 54.101562 6.835938 C 54.3125 6.957031 54.496094 7.082031 54.597656 7.160156 C 54.699219 7.234375 54.714844 7.265625 54.683594 7.257812 C 54.65625 7.25 54.566406 7.203125 54.445312 7.125 C 54.324219 7.050781 54.164062 6.945312 54.011719 6.851562 C 53.855469 6.757812 53.707031 6.679688 53.605469 6.632812 C 53.53125 6.59375 53.480469 6.574219 53.441406 6.558594 C 53.4375 6.585938 53.46875 6.632812 53.53125 6.707031 C 53.59375 6.78125 53.6875 6.878906 53.910156 7.125 C 54.128906 7.371094 54.472656 7.761719 54.882812 8.113281 C 55.289062 8.460938 55.765625 8.769531 56.105469 9.027344 C 56.445312 9.28125 56.644531 9.484375 56.796875 9.675781 C 56.949219 9.863281 57.050781 10.035156 57.15625 10.269531 C 57.214844 10.394531 57.273438 10.539062 57.328125 10.691406 C 57.3125 10.605469 57.285156 10.449219 57.253906 10.285156 C 57.242188 10.261719 57.234375 10.234375 57.222656 10.214844 C 57.175781 10.105469 57.109375 9.957031 57.003906 9.785156 C 56.898438 9.613281 56.746094 9.410156 56.613281 9.253906 C 56.480469 9.09375 56.363281 8.96875 56.292969 8.886719 C 56.230469 8.808594 56.214844 8.777344 56.234375 8.789062 C 56.261719 8.796875 56.324219 8.855469 56.421875 8.957031 C 56.519531 9.0625 56.648438 9.210938 56.792969 9.40625 C 56.933594 9.609375 57.089844 9.851562 57.183594 10.011719 C 57.183594 10.027344 57.195312 10.039062 57.203125 10.050781 C 57.191406 10.011719 57.179688 9.96875 57.167969 9.933594 C 57.140625 9.851562 57.128906 9.777344 57.089844 9.75 C 57.050781 9.714844 56.980469 9.605469 56.894531 9.441406 C 56.8125 9.273438 56.707031 9.035156 56.558594 8.761719 C 56.417969 8.484375 56.238281 8.175781 55.984375 7.886719 C 55.734375 7.589844 55.410156 7.308594 55.078125 7.101562 C 54.753906 6.894531 54.421875 6.753906 54.160156 6.671875 C 53.898438 6.585938 53.722656 6.550781 53.605469 6.535156 C 53.570312 6.53125 53.539062 6.527344 53.515625 6.527344 Z M 57.761719 15.980469 C 57.703125 15.792969 57.589844 15.445312 57.476562 15.1875 C 57.363281 14.933594 57.253906 14.777344 57.203125 14.6875 C 57.144531 14.601562 57.140625 14.578125 57.15625 14.582031 C 57.167969 14.585938 57.195312 14.609375 57.257812 14.707031 C 57.320312 14.800781 57.421875 14.972656 57.507812 15.136719 C 57.589844 15.304688 57.65625 15.46875 57.703125 15.570312 C 57.746094 15.679688 57.769531 15.722656 57.785156 15.765625 C 57.792969 15.789062 57.800781 15.808594 57.808594 15.832031 C 57.816406 15.757812 57.824219 15.691406 57.828125 15.621094 C 57.878906 15.121094 57.878906 15.050781 57.71875 14.550781 C 57.65625 14.332031 57.554688 14.105469 57.398438 13.789062 C 57.242188 13.464844 57.027344 13.054688 56.691406 12.597656 C 56.359375 12.144531 55.90625 11.652344 55.484375 11.265625 C 55.0625 10.886719 54.671875 10.609375 54.339844 10.382812 C 54.011719 10.160156 53.734375 9.980469 53.597656 9.902344 C 53.570312 9.890625 53.546875 9.875 53.53125 9.871094 C 53.550781 9.898438 53.535156 9.882812 53.589844 9.949219 C 53.652344 10.011719 53.808594 10.203125 53.976562 10.414062 C 54.144531 10.617188 54.09375 10.535156 54.230469 10.734375 C 54.363281 10.9375 54.4375 11.0625 54.4375 11.089844 C 54.433594 11.113281 54.351562 11.039062 54.253906 10.914062 C 54.152344 10.785156 54.285156 10.949219 54.09375 10.695312 C 53.898438 10.449219 53.628906 10.128906 53.492188 9.9375 L 53.484375 9.921875 C 53.492188 9.949219 53.5 9.992188 53.515625 10.039062 C 53.5625 10.214844 53.660156 10.527344 53.890625 10.992188 C 54.125 11.457031 54.484375 12.070312 54.851562 12.613281 C 55.222656 13.160156 55.589844 13.636719 55.960938 14.074219 C 56.332031 14.503906 56.703125 14.898438 56.972656 15.246094 C 57.25 15.597656 57.429688 15.90625 57.542969 16.25 C 57.613281 16.464844 57.664062 16.6875 57.695312 16.9375 C 57.707031 16.820312 57.714844 16.679688 57.730469 16.53125 C 57.746094 16.378906 57.765625 16.214844 57.785156 16.050781 Z M 58.191406 14.164062 C 58.238281 14.015625 58.339844 13.734375 58.410156 13.507812 C 58.484375 13.289062 58.527344 13.125 58.5625 13.015625 C 58.59375 12.910156 58.621094 12.855469 58.632812 12.851562 C 58.648438 12.847656 58.648438 12.894531 58.613281 13.046875 C 58.570312 13.199219 58.492188 13.457031 58.421875 13.6875 C 58.347656 13.917969 58.273438 14.117188 58.234375 14.246094 C 58.210938 14.308594 58.195312 14.351562 58.1875 14.386719 C 58.195312 14.597656 58.199219 14.789062 58.195312 14.953125 C 58.191406 15.238281 58.171875 15.441406 58.148438 15.628906 C 58.210938 15.472656 58.289062 15.320312 58.378906 15.144531 C 58.535156 14.84375 58.738281 14.460938 58.925781 14.058594 C 59.109375 13.660156 59.277344 13.234375 59.386719 12.828125 C 59.5 12.421875 59.558594 12.027344 59.589844 11.585938 C 59.613281 11.144531 59.617188 10.660156 59.59375 10.332031 C 59.582031 10.070312 59.554688 9.910156 59.535156 9.828125 C 59.515625 9.933594 59.492188 10.078125 59.460938 10.226562 C 59.417969 10.429688 59.359375 10.652344 59.304688 10.828125 C 59.25 11.003906 59.199219 11.128906 59.171875 11.175781 C 59.144531 11.226562 59.136719 11.199219 59.148438 11.117188 C 59.167969 11.039062 59.207031 10.902344 59.257812 10.746094 C 59.304688 10.589844 59.359375 10.414062 59.398438 10.230469 C 59.4375 10.066406 59.464844 9.886719 59.484375 9.769531 C 59.46875 9.785156 59.460938 9.808594 59.449219 9.839844 C 59.417969 9.902344 59.371094 9.980469 59.246094 10.132812 C 59.121094 10.292969 58.917969 10.523438 58.726562 10.773438 C 58.53125 11.023438 58.359375 11.300781 58.242188 11.53125 C 57.6875 12.6875 57.953125 11.910156 58.132812 13.605469 C 58.15625 13.808594 58.171875 14.007812 58.175781 14.195312 C 58.183594 14.183594 58.183594 14.175781 58.191406 14.164062 Z M 57.839844 20.269531 C 57.953125 20.070312 58.183594 19.71875 58.332031 19.476562 C 58.488281 19.234375 58.566406 19.101562 58.613281 19.011719 C 58.664062 18.929688 58.679688 18.890625 58.675781 18.90625 C 58.675781 18.921875 58.660156 19 58.613281 19.101562 C 58.570312 19.210938 58.496094 19.347656 58.394531 19.519531 C 58.292969 19.691406 58.164062 19.890625 58.066406 20.046875 C 57.964844 20.195312 57.902344 20.304688 57.855469 20.386719 C 57.804688 20.472656 57.769531 20.539062 57.75 20.597656 C 57.742188 20.613281 57.734375 20.628906 57.734375 20.636719 C 57.699219 20.863281 57.667969 21.070312 57.65625 21.183594 C 57.632812 21.359375 57.625 21.335938 57.613281 21.402344 C 57.667969 21.257812 57.726562 21.117188 57.785156 20.992188 C 57.859375 20.820312 57.9375 20.679688 58.109375 20.464844 C 58.277344 20.25 58.539062 19.960938 58.808594 19.621094 C 59.078125 19.273438 59.359375 18.882812 59.570312 18.523438 C 59.789062 18.160156 59.949219 17.824219 60.050781 17.515625 C 60.15625 17.199219 60.207031 16.910156 60.226562 16.554688 C 60.253906 16.199219 60.246094 15.785156 60.230469 15.492188 C 60.214844 15.289062 60.199219 15.144531 60.179688 15.066406 C 60.167969 15.121094 60.152344 15.183594 60.140625 15.238281 C 60.113281 15.351562 60.09375 15.441406 60.066406 15.605469 C 60.035156 15.777344 59.992188 16.023438 59.960938 16.183594 C 59.917969 16.34375 59.882812 16.425781 59.871094 16.421875 C 59.855469 16.421875 59.863281 16.335938 59.875 16.253906 C 59.886719 16.175781 59.917969 16.097656 59.949219 15.933594 C 59.988281 15.765625 60.035156 15.511719 60.066406 15.320312 C 60.085938 15.210938 60.101562 15.121094 60.109375 15.050781 C 60.09375 15.082031 60.078125 15.132812 60.058594 15.199219 C 60 15.355469 59.902344 15.578125 59.738281 15.871094 C 59.578125 16.160156 59.34375 16.523438 59.109375 16.957031 C 58.871094 17.390625 58.636719 17.898438 58.449219 18.292969 C 58.269531 18.6875 58.125 18.96875 58.046875 19.132812 C 57.855469 19.515625 57.851562 19.472656 57.835938 19.648438 C 57.824219 19.878906 57.789062 20.160156 57.78125 20.21875 C 57.777344 20.285156 57.769531 20.351562 57.761719 20.417969 C 57.777344 20.382812 57.800781 20.332031 57.839844 20.269531 Z M 53.644531 13.851562 C 53.726562 13.980469 53.859375 14.175781 53.980469 14.34375 C 54.109375 14.527344 54.222656 14.683594 54.300781 14.796875 C 54.371094 14.90625 54.410156 14.972656 54.429688 14.992188 C 54.445312 15.003906 54.445312 14.972656 54.398438 14.882812 C 54.355469 14.796875 54.261719 14.648438 54.152344 14.476562 C 54.039062 14.304688 53.902344 14.097656 53.8125 13.957031 C 53.765625 13.890625 53.734375 13.839844 53.703125 13.800781 C 53.773438 13.828125 53.886719 13.898438 54.015625 13.980469 C 54.175781 14.082031 54.359375 14.203125 54.648438 14.429688 C 54.941406 14.660156 55.339844 15.003906 55.695312 15.367188 C 56.050781 15.730469 56.363281 16.121094 56.574219 16.4375 C 56.785156 16.75 56.890625 16.996094 57 17.269531 C 57.113281 17.550781 57.230469 17.871094 57.304688 18.15625 C 57.375 18.445312 57.40625 18.703125 57.4375 18.96875 C 57.460938 19.242188 57.484375 19.519531 57.5 19.714844 C 57.53125 20.140625 57.542969 20.171875 57.472656 20.621094 C 57.460938 20.65625 57.457031 20.691406 57.449219 20.734375 C 57.449219 20.722656 57.449219 20.71875 57.445312 20.707031 C 57.4375 20.644531 57.421875 20.554688 57.394531 20.421875 C 57.367188 20.289062 57.328125 20.113281 57.269531 19.925781 C 57.214844 19.738281 57.144531 19.539062 57.097656 19.429688 C 57.050781 19.324219 57.027344 19.308594 57.027344 19.320312 C 57.023438 19.335938 57.039062 19.382812 57.066406 19.449219 C 57.082031 19.519531 57.109375 19.605469 57.164062 19.796875 C 57.214844 19.988281 57.296875 20.292969 57.335938 20.574219 C 57.371094 20.808594 57.371094 21.023438 57.371094 21.191406 C 57.339844 21.34375 57.3125 21.484375 57.289062 21.609375 C 57.261719 21.746094 57.238281 21.855469 57.21875 21.949219 C 57.207031 21.8125 57.195312 21.671875 57.175781 21.535156 C 57.097656 21.027344 56.949219 20.515625 56.675781 19.960938 C 56.40625 19.410156 56.015625 18.816406 55.640625 18.304688 C 55.257812 17.792969 54.886719 17.359375 54.601562 16.96875 C 54.316406 16.574219 54.117188 16.214844 53.976562 15.863281 C 53.839844 15.511719 53.757812 15.164062 53.722656 14.851562 C 53.6875 14.535156 53.703125 14.257812 53.679688 14.070312 C 53.671875 13.96875 53.652344 13.898438 53.644531 13.851562 Z M 52.96875 17.90625 C 53.082031 18.121094 53.3125 18.5 53.464844 18.761719 C 53.621094 19.023438 53.699219 19.175781 53.75 19.269531 C 53.808594 19.363281 53.851562 19.394531 53.859375 19.378906 C 53.871094 19.363281 53.851562 19.300781 53.746094 19.101562 C 53.640625 18.898438 53.449219 18.5625 53.3125 18.3125 C 53.207031 18.113281 53.132812 17.972656 53.074219 17.867188 C 53.191406 17.972656 53.375 18.164062 53.597656 18.355469 C 53.851562 18.589844 54.164062 18.839844 54.480469 19.117188 C 54.800781 19.394531 55.132812 19.691406 55.421875 20.035156 C 55.71875 20.371094 55.972656 20.746094 56.15625 21.074219 C 56.34375 21.40625 56.46875 21.699219 56.5625 22.074219 C 56.660156 22.449219 56.734375 22.90625 56.761719 23.320312 C 56.78125 23.726562 56.757812 24.085938 56.734375 24.328125 C 56.710938 24.648438 56.753906 24.863281 56.683594 25.148438 C 56.679688 25.03125 56.675781 24.859375 56.65625 24.671875 C 56.640625 24.480469 56.609375 24.261719 56.539062 24.007812 C 56.472656 23.75 56.355469 23.460938 56.285156 23.285156 C 56.210938 23.113281 56.167969 23.066406 56.144531 23.046875 C 56.121094 23.035156 56.113281 23.054688 56.148438 23.136719 C 56.183594 23.21875 56.261719 23.367188 56.335938 23.570312 C 56.40625 23.78125 56.476562 24.046875 56.515625 24.386719 C 56.546875 24.722656 56.554688 25.128906 56.558594 25.367188 C 56.554688 25.429688 56.554688 25.476562 56.550781 25.515625 C 56.492188 25.675781 56.417969 25.855469 56.328125 26.039062 C 56.15625 26.378906 55.976562 26.679688 55.839844 26.933594 L 55.839844 26.941406 C 56.027344 26.4375 56.105469 26.128906 56.136719 25.824219 C 56.175781 25.511719 56.160156 25.210938 56.082031 24.890625 C 56.007812 24.578125 55.871094 24.253906 55.625 23.832031 C 55.375 23.417969 55.015625 22.914062 54.65625 22.402344 C 54.300781 21.890625 53.949219 21.382812 53.683594 20.808594 C 53.414062 20.230469 53.226562 19.59375 53.105469 19.078125 C 52.988281 18.566406 52.941406 18.183594 52.921875 17.976562 C 52.914062 17.890625 52.910156 17.835938 52.917969 17.804688 C 52.929688 17.832031 52.949219 17.871094 52.96875 17.90625 " fill-opacity="1" fill-rule="evenodd"/></g></g></g></svg>