<svg xmlns="http://www.w3.org/2000/svg" xmlns:xlink="http://www.w3.org/1999/xlink" width="100%" height="100%" zoomAndPan="magnify" viewBox="49.5 0 141.75 141.75" preserveAspectRatio="xMidYMid meet" version="1.0"><defs><g/><clipPath id="396a8d7fdd"><path d="M 49 0 L 192 0 L 192 141.5 L 49 141.5 Z M 49 0 " clip-rule="nonzero"/></clipPath><clipPath id="b2894408a9"><path d="M 0.566406 0 L 141.933594 0 L 141.933594 141.367188 L 0.566406 141.367188 Z M 0.566406 0 " clip-rule="nonzero"/></clipPath><clipPath id="d9e8cdf62c"><path d="M 71.25 0 C 32.210938 0 0.566406 31.644531 0.566406 70.683594 C 0.566406 109.722656 32.210938 141.367188 71.25 141.367188 C 110.289062 141.367188 141.933594 109.722656 141.933594 70.683594 C 141.933594 31.644531 110.289062 0 71.25 0 Z M 71.25 0 " clip-rule="nonzero"/></clipPath><clipPath id="8bc443f5e3"><path d="M 0.566406 0 L 141.933594 0 L 141.933594 141.367188 L 0.566406 141.367188 Z M 0.566406 0 " clip-rule="nonzero"/></clipPath><clipPath id="45e83de7c6"><path d="M 71.25 0 C 32.210938 0 0.566406 31.644531 0.566406 70.683594 C 0.566406 109.722656 32.210938 141.367188 71.25 141.367188 C 110.289062 141.367188 141.933594 109.722656 141.933594 70.683594 C 141.933594 31.644531 110.289062 0 71.25 0 Z M 71.25 0 " clip-rule="nonzero"/></clipPath><clipPath id="56ae7b566b"><rect x="0" width="142" y="0" height="142"/></clipPath><clipPath id="d9a023ebf0"><path d="M 0.867188 0.71875 L 37 0.71875 L 37 64.445312 L 0.867188 64.445312 Z M 0.867188 0.71875 " clip-rule="nonzero"/></clipPath><clipPath id="d42419df69"><rect x="0" width="37" y="0" height="65"/></clipPath><clipPath id="bd735948f9"><path d="M 50 0.71875 L 81.605469 0.71875 L 81.605469 64.445312 L 50 64.445312 Z M 50 0.71875 " clip-rule="nonzero"/></clipPath><clipPath id="937ec04d6d"><path d="M 1 3 L 31.605469 3 L 31.605469 46 L 1 46 Z M 1 3 " clip-rule="nonzero"/></clipPath><clipPath id="f2bcec1543"><rect x="0" width="32" y="0" height="65"/></clipPath><clipPath id="82d3f73b0a"><path d="M 35 3 L 49 3 L 49 45 L 35 45 Z M 35 3 " clip-rule="nonzero"/></clipPath><clipPath id="7def50734b"><path d="M 39.488281 3.324219 L 51.015625 4.523438 L 46.675781 46.207031 L 35.148438 45.007812 Z M 39.488281 3.324219 " clip-rule="nonzero"/></clipPath><clipPath id="c137282351"><path d="M 39.488281 3.324219 L 51.015625 4.523438 L 46.675781 46.207031 L 35.148438 45.007812 Z M 39.488281 3.324219 " clip-rule="nonzero"/></clipPath><clipPath id="27a54ade6c"><rect x="0" width="82" y="0" height="65"/></clipPath><clipPath id="6589ff82a4"><rect x="0" width="143" y="0" height="142"/></clipPath></defs><g clip-path="url(#396a8d7fdd)"><g transform="matrix(1, 0, 0, 1, 49, -0.000000000000007933)"><g clip-path="url(#6589ff82a4)"><g clip-path="url(#b2894408a9)"><g clip-path="url(#d9e8cdf62c)"><g transform="matrix(1, 0, 0, 1, 0, -0.000000000000007933)"><g clip-path="url(#56ae7b566b)"><g clip-path="url(#8bc443f5e3)"><g clip-path="url(#45e83de7c6)"><path fill="#ff741f" d="M 0.566406 0 L 141.933594 0 L 141.933594 141.367188 L 0.566406 141.367188 Z M 0.566406 0 " fill-opacity="1" fill-rule="nonzero"/></g></g></g></g></g></g><g transform="matrix(1, 0, 0, 1, 30, 46)"><g clip-path="url(#27a54ade6c)"><g clip-path="url(#d9a023ebf0)"><g transform="matrix(1, 0, 0, 1, 0, -0.000000000000014211)"><g clip-path="url(#d42419df69)"><g fill="#ffffff" fill-opacity="1"><g transform="translate(1.076187, 45.943528)"><g><path d="M 18.625 -42.984375 C 20.914062 -42.984375 23.148438 -42.648438 25.328125 -41.984375 C 27.515625 -41.316406 29.132812 -40.660156 30.1875 -40.015625 L 31.71875 -39 L 27.84375 -31.3125 C 27.53125 -31.519531 27.097656 -31.785156 26.546875 -32.109375 C 26.003906 -32.429688 24.984375 -32.863281 23.484375 -33.40625 C 21.984375 -33.957031 20.585938 -34.234375 19.296875 -34.234375 C 17.691406 -34.234375 16.453125 -33.890625 15.578125 -33.203125 C 14.710938 -32.523438 14.28125 -31.609375 14.28125 -30.453125 C 14.28125 -29.867188 14.484375 -29.328125 14.890625 -28.828125 C 15.296875 -28.335938 15.992188 -27.8125 16.984375 -27.25 C 17.972656 -26.6875 18.84375 -26.234375 19.59375 -25.890625 C 20.34375 -25.546875 21.503906 -25.035156 23.078125 -24.359375 C 25.804688 -23.203125 28.132812 -21.625 30.0625 -19.625 C 31.988281 -17.625 32.953125 -15.363281 32.953125 -12.84375 C 32.953125 -10.414062 32.515625 -8.296875 31.640625 -6.484375 C 30.773438 -4.679688 29.582031 -3.269531 28.0625 -2.25 C 26.550781 -1.226562 24.875 -0.472656 23.03125 0.015625 C 21.1875 0.515625 19.191406 0.765625 17.046875 0.765625 C 15.203125 0.765625 13.390625 0.578125 11.609375 0.203125 C 9.835938 -0.171875 8.351562 -0.640625 7.15625 -1.203125 C 5.96875 -1.765625 4.894531 -2.316406 3.9375 -2.859375 C 2.976562 -3.410156 2.28125 -3.875 1.84375 -4.25 L 1.171875 -4.8125 L 5.984375 -12.890625 C 6.390625 -12.554688 6.953125 -12.125 7.671875 -11.59375 C 8.390625 -11.0625 9.660156 -10.351562 11.484375 -9.46875 C 13.304688 -8.582031 14.921875 -8.140625 16.328125 -8.140625 C 20.378906 -8.140625 22.40625 -9.519531 22.40625 -12.28125 C 22.40625 -12.863281 22.257812 -13.398438 21.96875 -13.890625 C 21.6875 -14.390625 21.175781 -14.882812 20.4375 -15.375 C 19.707031 -15.875 19.0625 -16.265625 18.5 -16.546875 C 17.9375 -16.835938 17.015625 -17.28125 15.734375 -17.875 C 14.453125 -18.476562 13.503906 -18.929688 12.890625 -19.234375 C 10.335938 -20.503906 8.359375 -22.082031 6.953125 -23.96875 C 5.554688 -25.863281 4.859375 -27.90625 4.859375 -30.09375 C 4.859375 -33.875 6.253906 -36.96875 9.046875 -39.375 C 11.847656 -41.78125 15.039062 -42.984375 18.625 -42.984375 Z M 18.625 -42.984375 "/></g></g></g></g></g></g><g clip-path="url(#bd735948f9)"><g transform="matrix(1, 0, 0, 1, 50, -0.000000000000014211)"><g clip-path="url(#f2bcec1543)"><g clip-path="url(#937ec04d6d)"><g fill="#ffffff" fill-opacity="1"><g transform="translate(0.923374, 45.943528)"><g><path d="M 0.40625 -33.765625 L 0.40625 -42.21875 L 30.09375 -42.21875 L 30.09375 -33.765625 L 20.0625 -33.765625 L 20.0625 0 L 10.4375 0 L 10.4375 -33.765625 Z M 0.40625 -33.765625 "/></g></g></g></g></g></g></g><g clip-path="url(#82d3f73b0a)"><g clip-path="url(#7def50734b)"><g clip-path="url(#c137282351)"><path fill="#ffffff" d="M 44.488281 32.648438 C 44.601562 32.476562 44.804688 32.230469 44.984375 32.023438 C 45.15625 31.8125 45.304688 31.625 45.421875 31.492188 C 45.535156 31.355469 45.617188 31.273438 45.636719 31.269531 C 45.664062 31.265625 45.632812 31.339844 45.527344 31.492188 C 45.425781 31.636719 45.242188 31.867188 45.0625 32.089844 C 44.875 32.308594 44.6875 32.53125 44.5625 32.695312 C 44.484375 32.792969 44.433594 32.871094 44.394531 32.925781 C 44.363281 33.027344 44.332031 33.121094 44.304688 33.214844 C 44.230469 33.4375 44.160156 33.644531 44.089844 33.828125 C 44.167969 33.730469 44.253906 33.636719 44.34375 33.539062 C 44.589844 33.296875 44.886719 33.0625 45.253906 32.761719 C 45.621094 32.460938 46.058594 32.09375 46.457031 31.648438 C 46.855469 31.199219 47.210938 30.667969 47.480469 30.195312 C 47.753906 29.722656 47.929688 29.296875 48.082031 28.886719 C 48.234375 28.472656 48.359375 28.082031 48.457031 27.65625 C 48.546875 27.226562 48.601562 26.777344 48.609375 26.515625 C 48.609375 26.367188 48.601562 26.28125 48.578125 26.238281 C 48.566406 26.285156 48.554688 26.339844 48.542969 26.40625 C 48.488281 26.609375 48.40625 26.898438 48.324219 27.125 C 48.246094 27.351562 48.175781 27.523438 48.121094 27.621094 C 48.074219 27.714844 48.03125 27.730469 48.027344 27.707031 C 48.023438 27.6875 48.054688 27.625 48.101562 27.519531 C 48.144531 27.414062 48.191406 27.257812 48.257812 27.054688 C 48.324219 26.859375 48.410156 26.621094 48.453125 26.429688 C 48.476562 26.347656 48.492188 26.269531 48.503906 26.207031 C 48.460938 26.234375 48.421875 26.316406 48.335938 26.429688 C 48.246094 26.558594 48.109375 26.726562 47.84375 27.039062 C 47.578125 27.34375 47.179688 27.789062 46.785156 28.289062 C 46.402344 28.785156 46.027344 29.328125 45.710938 29.777344 C 44.421875 31.605469 45.007812 30.160156 44.613281 32.085938 C 44.566406 32.285156 44.515625 32.488281 44.464844 32.691406 C 44.472656 32.679688 44.480469 32.667969 44.488281 32.648438 Z M 46.003906 34.117188 C 45.964844 34.183594 45.925781 34.257812 45.875 34.339844 C 45.742188 34.558594 45.558594 34.820312 45.425781 35.027344 C 45.292969 35.230469 45.222656 35.378906 45.199219 35.449219 C 45.175781 35.511719 45.203125 35.496094 45.292969 35.375 C 45.382812 35.246094 45.53125 35.011719 45.679688 34.789062 C 45.835938 34.554688 45.988281 34.335938 46.082031 34.191406 L 46.089844 34.171875 C 46.046875 34.257812 45.996094 34.371094 45.929688 34.511719 C 45.753906 34.878906 45.46875 35.4375 45.160156 35.945312 C 44.847656 36.449219 44.515625 36.902344 44.136719 37.3125 C 43.761719 37.730469 43.34375 38.105469 42.925781 38.441406 C 42.503906 38.78125 42.089844 39.082031 41.570312 39.550781 C 41.054688 40.019531 40.441406 40.644531 39.84375 41.308594 C 39.238281 41.976562 38.644531 42.667969 38.148438 43.238281 C 37.652344 43.796875 37.257812 44.226562 36.988281 44.472656 C 36.722656 44.71875 36.585938 44.789062 36.449219 44.78125 C 36.3125 44.773438 36.179688 44.6875 36.085938 44.613281 C 35.992188 44.539062 35.945312 44.460938 36.019531 44.386719 C 36.09375 44.300781 36.292969 44.210938 36.785156 43.800781 C 37.273438 43.382812 38.058594 42.640625 38.617188 42.074219 C 39.164062 41.511719 39.484375 41.125 39.761719 40.699219 C 40.035156 40.277344 40.320312 39.773438 40.445312 39.335938 C 40.496094 39.160156 40.527344 38.992188 40.539062 38.824219 C 40.550781 38.785156 40.566406 38.742188 40.578125 38.691406 C 40.59375 38.589844 40.617188 38.460938 40.621094 38.332031 C 40.636719 38.199219 40.644531 38.066406 40.644531 37.863281 C 40.652344 37.660156 40.652344 37.40625 40.652344 37.164062 C 40.65625 36.925781 40.652344 36.714844 40.617188 36.433594 C 40.582031 36.15625 40.507812 35.800781 40.449219 35.59375 C 40.402344 35.378906 40.375 35.304688 40.363281 35.304688 C 40.351562 35.300781 40.355469 35.375 40.375 35.511719 C 40.398438 35.660156 40.429688 35.859375 40.46875 36.121094 C 40.5 36.378906 40.53125 36.691406 40.53125 37.0625 C 40.535156 37.40625 40.511719 37.808594 40.5 38.128906 C 40.492188 38.09375 40.488281 38.0625 40.484375 38.035156 C 40.402344 37.542969 40.191406 36.972656 39.957031 36.402344 C 39.714844 35.824219 39.410156 35.238281 39.125 34.5625 C 38.828125 33.890625 38.542969 33.132812 38.351562 32.203125 C 38.167969 31.273438 38.082031 30.175781 38.027344 29.425781 C 37.96875 28.683594 37.941406 28.300781 37.917969 28.085938 L 37.917969 28.050781 C 37.960938 28.207031 38.019531 28.394531 38.085938 28.570312 C 38.183594 28.863281 38.289062 29.121094 38.359375 29.367188 C 38.4375 29.613281 38.492188 29.851562 38.519531 29.980469 C 38.542969 30.105469 38.550781 30.113281 38.566406 30.0625 C 38.578125 30.011719 38.589844 29.902344 38.535156 29.636719 C 38.476562 29.375 38.34375 28.964844 38.242188 28.625 C 38.1875 28.453125 38.140625 28.296875 38.09375 28.167969 C 38.191406 28.339844 38.335938 28.585938 38.574219 28.890625 C 38.925781 29.371094 39.480469 29.996094 39.90625 30.601562 C 40.328125 31.203125 40.625 31.785156 40.832031 32.386719 C 41.035156 32.988281 41.144531 33.617188 41.1875 34.285156 C 41.234375 34.957031 41.207031 35.679688 41.144531 36.273438 C 41.082031 36.863281 40.988281 37.335938 40.898438 37.734375 C 40.820312 38.128906 40.753906 38.460938 40.726562 38.707031 C 40.699219 38.953125 40.714844 39.121094 40.789062 39.183594 C 40.851562 39.242188 40.976562 39.1875 41.144531 38.964844 C 41.304688 38.734375 41.507812 38.335938 41.820312 37.660156 C 42.023438 37.21875 42.261719 36.664062 42.488281 36.136719 C 42.503906 36.085938 42.539062 36.027344 42.585938 35.933594 C 42.675781 35.765625 42.804688 35.519531 42.972656 35.21875 C 43.140625 34.921875 43.339844 34.578125 43.5625 34.136719 C 43.785156 33.695312 44.023438 33.160156 44.167969 32.757812 C 44.257812 32.527344 44.3125 32.34375 44.34375 32.195312 C 44.382812 32.078125 44.414062 31.929688 44.453125 31.667969 C 44.5 31.339844 44.558594 30.824219 44.59375 30.253906 C 44.613281 29.804688 44.605469 29.4375 44.6875 28.992188 C 44.726562 28.742188 44.808594 28.382812 44.886719 27.929688 C 44.972656 27.46875 45.058594 26.902344 45.109375 26.542969 C 45.175781 26.089844 45.1875 25.683594 45.210938 25.21875 C 45.234375 24.46875 45.210938 23.710938 45.253906 22.976562 C 45.257812 22.804688 45.28125 22.582031 45.308594 22.3125 C 45.34375 22.042969 45.382812 21.726562 45.425781 21.261719 C 45.476562 20.640625 45.5625 19.898438 45.554688 19.285156 C 45.546875 18.769531 45.472656 18.117188 45.390625 17.585938 C 45.308594 17.054688 45.222656 16.648438 45.136719 16.28125 C 45.074219 15.996094 45.003906 15.714844 44.945312 15.425781 C 44.875 15.09375 44.796875 14.765625 44.734375 14.425781 C 44.664062 14.0625 44.59375 13.648438 44.503906 13.28125 C 44.460938 13.109375 44.390625 12.851562 44.265625 12.472656 C 44.148438 12.101562 43.976562 11.609375 43.78125 11.132812 C 43.582031 10.65625 43.355469 10.203125 43.054688 9.707031 C 42.753906 9.207031 42.386719 8.671875 41.976562 8.160156 C 41.5625 7.640625 41.117188 7.144531 40.765625 6.691406 C 40.429688 6.246094 40.183594 5.839844 40.015625 5.457031 C 39.847656 5.074219 39.746094 4.714844 39.679688 4.398438 C 39.617188 4.085938 39.585938 3.828125 39.535156 3.660156 C 39.511719 3.574219 39.488281 3.511719 39.472656 3.464844 C 39.554688 3.550781 39.65625 3.648438 39.753906 3.753906 C 39.898438 3.894531 40.03125 4.050781 40.140625 4.179688 C 40.246094 4.308594 40.324219 4.421875 40.382812 4.480469 C 40.449219 4.542969 40.492188 4.554688 40.488281 4.53125 C 40.484375 4.503906 40.433594 4.4375 40.324219 4.296875 C 40.210938 4.15625 40.042969 3.933594 39.898438 3.769531 C 39.75 3.597656 39.628906 3.476562 39.527344 3.371094 C 39.597656 3.378906 39.722656 3.425781 39.929688 3.519531 C 40.222656 3.652344 40.679688 3.882812 41.101562 4.207031 C 41.519531 4.539062 41.898438 4.957031 42.175781 5.363281 C 42.453125 5.769531 42.632812 6.175781 42.800781 6.757812 C 42.96875 7.34375 43.125 8.109375 43.269531 8.765625 C 43.320312 9.015625 43.382812 9.253906 43.433594 9.464844 C 43.324219 9.195312 43.1875 8.871094 43.070312 8.625 C 42.910156 8.296875 42.789062 8.121094 42.695312 7.972656 C 42.59375 7.828125 42.511719 7.714844 42.480469 7.691406 C 42.460938 7.664062 42.484375 7.71875 42.5625 7.855469 C 42.644531 7.996094 42.773438 8.21875 42.902344 8.492188 C 43.035156 8.765625 43.15625 9.09375 43.277344 9.378906 C 43.394531 9.644531 43.507812 9.878906 43.578125 10.023438 C 43.613281 10.148438 43.648438 10.269531 43.683594 10.386719 C 43.8125 10.824219 43.933594 11.160156 44.027344 11.445312 C 44.121094 11.734375 44.1875 11.96875 44.25 12.191406 C 44.3125 12.414062 44.375 12.621094 44.429688 12.785156 C 44.484375 12.941406 44.535156 13.082031 44.582031 13.25 C 44.675781 13.558594 44.785156 13.957031 44.855469 14.265625 C 44.992188 14.785156 44.988281 14.957031 45.0625 15.425781 C 45.085938 15.578125 45.121094 15.777344 45.164062 15.957031 C 45.238281 16.292969 45.332031 16.589844 45.410156 16.960938 C 45.488281 17.335938 45.585938 17.894531 45.644531 18.453125 C 45.703125 19.015625 45.738281 19.574219 45.722656 20.085938 C 45.707031 20.894531 45.511719 21.667969 45.429688 22.46875 C 45.402344 22.785156 45.382812 23.097656 45.371094 23.410156 C 45.359375 23.714844 45.335938 24.042969 45.324219 24.355469 C 45.300781 24.835938 45.296875 25.363281 45.273438 25.777344 C 45.257812 26.1875 45.234375 26.542969 45.179688 26.996094 C 45.121094 27.445312 45.046875 27.914062 44.992188 28.234375 C 44.941406 28.554688 44.859375 28.878906 44.808594 29.199219 C 44.765625 29.488281 44.742188 29.832031 44.71875 30.097656 C 44.679688 30.671875 44.679688 31.164062 44.566406 31.75 C 44.488281 32.144531 44.359375 32.617188 44.234375 33.011719 C 44.109375 33.410156 43.996094 33.75 43.90625 33.96875 C 43.738281 34.402344 43.464844 34.816406 43.253906 35.238281 C 43.097656 35.542969 42.957031 35.828125 42.839844 36.078125 C 42.585938 36.648438 42.667969 36.710938 42.296875 37.296875 C 42.171875 37.492188 42.097656 37.640625 41.957031 37.921875 C 41.816406 38.199219 41.671875 38.53125 41.5625 38.753906 C 41.460938 38.984375 41.394531 39.113281 41.367188 39.183594 C 41.339844 39.257812 41.351562 39.28125 41.363281 39.292969 C 41.375 39.308594 41.382812 39.308594 41.402344 39.296875 C 41.421875 39.289062 41.457031 39.253906 41.488281 39.210938 C 41.496094 39.199219 41.5 39.179688 41.507812 39.164062 C 41.511719 39.167969 41.515625 39.160156 41.515625 39.160156 C 41.570312 39.132812 41.691406 39.023438 41.875 38.886719 C 42.058594 38.746094 42.3125 38.585938 42.5 38.449219 C 42.691406 38.3125 42.820312 38.199219 42.9375 38.09375 C 43.050781 37.988281 43.152344 37.875 43.097656 37.910156 C 43.042969 37.9375 42.835938 38.109375 42.554688 38.324219 C 42.269531 38.527344 41.914062 38.777344 41.738281 38.894531 C 41.652344 38.945312 41.613281 38.976562 41.585938 38.984375 C 41.628906 38.890625 41.710938 38.761719 41.8125 38.546875 C 41.914062 38.328125 42.0625 38.015625 42.238281 37.710938 C 42.414062 37.402344 42.644531 37.027344 42.761719 36.878906 C 42.890625 36.726562 42.890625 36.707031 42.949219 36.648438 C 43.09375 36.519531 43.296875 36.324219 43.570312 36.085938 C 43.921875 35.773438 44.398438 35.390625 44.78125 35.097656 C 45.167969 34.8125 45.46875 34.621094 45.683594 34.4375 C 45.820312 34.320312 45.921875 34.210938 46.003906 34.117188 Z M 45.035156 8.171875 C 45.074219 8.285156 45.152344 8.484375 45.195312 8.683594 C 45.242188 8.878906 45.253906 9.070312 45.261719 9.234375 C 45.273438 9.390625 45.277344 9.515625 45.28125 9.601562 C 45.292969 9.691406 45.308594 9.734375 45.328125 9.742188 C 45.339844 9.75 45.347656 9.71875 45.347656 9.601562 C 45.347656 9.484375 45.335938 9.285156 45.3125 9.082031 C 45.285156 8.875 45.25 8.664062 45.214844 8.503906 C 45.1875 8.398438 45.15625 8.308594 45.136719 8.25 C 45.1875 8.320312 45.269531 8.425781 45.367188 8.597656 C 45.5 8.828125 45.671875 9.171875 45.804688 9.601562 C 45.9375 10.03125 46.03125 10.566406 46.039062 11.027344 C 46.050781 11.492188 45.984375 11.898438 45.890625 12.277344 C 45.804688 12.652344 45.703125 13.003906 45.601562 13.296875 C 45.5 13.585938 45.398438 13.824219 45.300781 14.054688 C 45.207031 14.289062 45.125 14.511719 45.082031 14.679688 C 45.074219 14.691406 45.070312 14.703125 45.070312 14.722656 C 45.066406 14.695312 45.0625 14.675781 45.058594 14.65625 C 45.046875 14.628906 45.042969 14.597656 45.03125 14.570312 C 45.039062 14.523438 45.042969 14.472656 45.042969 14.414062 C 45.058594 14.273438 45.074219 14.105469 45.113281 13.875 C 45.144531 13.640625 45.199219 13.339844 45.226562 13.136719 C 45.261719 12.929688 45.28125 12.820312 45.277344 12.773438 C 45.269531 12.730469 45.25 12.753906 45.21875 12.835938 C 45.191406 12.921875 45.167969 13.082031 45.121094 13.359375 C 45.078125 13.636719 45.023438 14.019531 45.003906 14.28125 C 45 14.332031 45 14.375 44.996094 14.414062 C 44.714844 13.230469 44.644531 11.992188 44.71875 10.773438 C 44.746094 10.300781 44.835938 9.832031 44.90625 9.46875 C 44.976562 9.105469 45.027344 8.847656 45.042969 8.640625 C 45.058594 8.433594 45.042969 8.277344 45.03125 8.199219 C 45.03125 8.183594 45.027344 8.171875 45.027344 8.164062 Z M 39.929688 9.542969 C 40.101562 9.628906 40.398438 9.777344 40.664062 9.933594 C 40.929688 10.085938 41.160156 10.246094 41.285156 10.34375 C 41.414062 10.4375 41.4375 10.476562 41.398438 10.46875 C 41.359375 10.457031 41.246094 10.398438 41.09375 10.296875 C 40.941406 10.203125 40.742188 10.074219 40.550781 9.953125 C 40.355469 9.835938 40.167969 9.738281 40.039062 9.679688 C 39.945312 9.632812 39.882812 9.605469 39.832031 9.585938 C 39.828125 9.617188 39.867188 9.683594 39.945312 9.773438 C 40.023438 9.867188 40.144531 9.992188 40.421875 10.300781 C 40.699219 10.609375 41.128906 11.097656 41.644531 11.542969 C 42.160156 11.980469 42.757812 12.371094 43.1875 12.695312 C 43.609375 13.011719 43.863281 13.265625 44.054688 13.507812 C 44.246094 13.742188 44.371094 13.960938 44.503906 14.253906 C 44.582031 14.410156 44.652344 14.59375 44.722656 14.785156 C 44.703125 14.679688 44.671875 14.480469 44.628906 14.273438 C 44.617188 14.246094 44.605469 14.210938 44.589844 14.183594 C 44.53125 14.046875 44.449219 13.863281 44.3125 13.648438 C 44.179688 13.429688 43.992188 13.175781 43.824219 12.976562 C 43.65625 12.777344 43.507812 12.617188 43.421875 12.515625 C 43.339844 12.417969 43.324219 12.375 43.347656 12.390625 C 43.378906 12.402344 43.457031 12.476562 43.582031 12.605469 C 43.703125 12.734375 43.867188 12.921875 44.050781 13.167969 C 44.226562 13.421875 44.421875 13.730469 44.539062 13.929688 C 44.542969 13.949219 44.554688 13.964844 44.566406 13.980469 C 44.550781 13.933594 44.539062 13.878906 44.523438 13.832031 C 44.488281 13.730469 44.472656 13.636719 44.421875 13.597656 C 44.375 13.554688 44.285156 13.421875 44.175781 13.214844 C 44.074219 13.003906 43.941406 12.703125 43.757812 12.355469 C 43.578125 12.011719 43.351562 11.621094 43.03125 11.257812 C 42.71875 10.886719 42.308594 10.53125 41.894531 10.269531 C 41.484375 10.007812 41.066406 9.832031 40.738281 9.726562 C 40.410156 9.621094 40.1875 9.578125 40.039062 9.554688 C 39.992188 9.550781 39.953125 9.546875 39.929688 9.542969 Z M 45.269531 21.441406 C 45.195312 21.207031 45.054688 20.765625 44.910156 20.445312 C 44.769531 20.125 44.632812 19.925781 44.566406 19.816406 C 44.492188 19.703125 44.488281 19.675781 44.507812 19.679688 C 44.519531 19.6875 44.554688 19.71875 44.636719 19.835938 C 44.714844 19.957031 44.839844 20.171875 44.949219 20.378906 C 45.050781 20.589844 45.136719 20.792969 45.191406 20.925781 C 45.25 21.0625 45.277344 21.117188 45.296875 21.171875 C 45.308594 21.199219 45.316406 21.226562 45.328125 21.25 C 45.335938 21.160156 45.347656 21.078125 45.351562 20.988281 C 45.414062 20.359375 45.417969 20.269531 45.214844 19.640625 C 45.132812 19.367188 45.007812 19.078125 44.8125 18.679688 C 44.613281 18.277344 44.34375 17.757812 43.917969 17.1875 C 43.503906 16.613281 42.933594 15.992188 42.40625 15.507812 C 41.875 15.03125 41.382812 14.683594 40.960938 14.398438 C 40.546875 14.113281 40.199219 13.890625 40.027344 13.792969 C 39.996094 13.777344 39.964844 13.761719 39.945312 13.753906 C 39.96875 13.789062 39.953125 13.765625 40.019531 13.851562 C 40.097656 13.929688 40.292969 14.175781 40.507812 14.4375 C 40.714844 14.695312 40.65625 14.589844 40.824219 14.84375 C 40.992188 15.09375 41.089844 15.253906 41.085938 15.285156 C 41.082031 15.320312 40.980469 15.222656 40.851562 15.066406 C 40.726562 14.902344 40.894531 15.109375 40.652344 14.792969 C 40.40625 14.480469 40.070312 14.078125 39.898438 13.839844 L 39.886719 13.816406 C 39.898438 13.851562 39.90625 13.90625 39.925781 13.964844 C 39.984375 14.1875 40.109375 14.578125 40.398438 15.164062 C 40.691406 15.746094 41.144531 16.519531 41.609375 17.207031 C 42.070312 17.894531 42.539062 18.488281 43.003906 19.039062 C 43.46875 19.585938 43.9375 20.078125 44.277344 20.515625 C 44.621094 20.957031 44.847656 21.34375 44.992188 21.777344 C 45.082031 22.046875 45.144531 22.328125 45.183594 22.644531 C 45.199219 22.496094 45.210938 22.320312 45.230469 22.136719 C 45.25 21.941406 45.273438 21.734375 45.300781 21.527344 Z M 45.808594 19.15625 C 45.867188 18.964844 45.996094 18.613281 46.082031 18.332031 C 46.175781 18.054688 46.230469 17.851562 46.277344 17.710938 C 46.316406 17.578125 46.351562 17.511719 46.363281 17.503906 C 46.382812 17.5 46.386719 17.558594 46.339844 17.75 C 46.285156 17.941406 46.1875 18.261719 46.097656 18.554688 C 46.003906 18.84375 45.910156 19.09375 45.863281 19.257812 C 45.835938 19.335938 45.816406 19.390625 45.804688 19.4375 C 45.816406 19.699219 45.816406 19.941406 45.816406 20.148438 C 45.808594 20.507812 45.785156 20.765625 45.753906 20.996094 C 45.832031 20.800781 45.929688 20.609375 46.042969 20.386719 C 46.242188 20.011719 46.5 19.527344 46.734375 19.023438 C 46.960938 18.519531 47.175781 17.988281 47.3125 17.472656 C 47.457031 16.960938 47.527344 16.464844 47.566406 15.910156 C 47.597656 15.359375 47.605469 14.746094 47.574219 14.332031 C 47.558594 14.003906 47.527344 13.804688 47.496094 13.699219 C 47.476562 13.832031 47.445312 14.011719 47.40625 14.203125 C 47.351562 14.457031 47.277344 14.738281 47.210938 14.960938 C 47.140625 15.179688 47.078125 15.335938 47.039062 15.398438 C 47.007812 15.460938 47 15.425781 47.015625 15.324219 C 47.039062 15.222656 47.089844 15.050781 47.148438 14.855469 C 47.207031 14.660156 47.277344 14.4375 47.328125 14.207031 C 47.375 13.996094 47.410156 13.773438 47.433594 13.625 C 47.417969 13.644531 47.410156 13.675781 47.390625 13.710938 C 47.351562 13.792969 47.292969 13.890625 47.136719 14.085938 C 46.980469 14.28125 46.722656 14.574219 46.480469 14.890625 C 46.238281 15.203125 46.019531 15.550781 45.871094 15.84375 C 45.171875 17.296875 45.507812 16.320312 45.738281 18.449219 C 45.761719 18.707031 45.78125 18.957031 45.789062 19.195312 C 45.796875 19.179688 45.800781 19.167969 45.808594 19.15625 Z M 45.367188 26.839844 C 45.511719 26.585938 45.796875 26.144531 45.984375 25.839844 C 46.179688 25.535156 46.28125 25.367188 46.339844 25.257812 C 46.402344 25.152344 46.421875 25.101562 46.417969 25.121094 C 46.417969 25.140625 46.402344 25.238281 46.339844 25.367188 C 46.289062 25.503906 46.191406 25.679688 46.066406 25.894531 C 45.9375 26.109375 45.773438 26.359375 45.652344 26.554688 C 45.527344 26.742188 45.445312 26.878906 45.382812 26.984375 C 45.320312 27.09375 45.28125 27.175781 45.253906 27.25 C 45.242188 27.269531 45.234375 27.289062 45.234375 27.300781 C 45.191406 27.582031 45.152344 27.847656 45.136719 27.988281 C 45.105469 28.207031 45.097656 28.179688 45.082031 28.261719 C 45.152344 28.082031 45.222656 27.90625 45.296875 27.742188 C 45.390625 27.53125 45.488281 27.351562 45.707031 27.082031 C 45.917969 26.808594 46.25 26.445312 46.585938 26.019531 C 46.925781 25.585938 47.277344 25.09375 47.546875 24.640625 C 47.820312 24.183594 48.019531 23.761719 48.148438 23.371094 C 48.28125 22.972656 48.34375 22.609375 48.371094 22.160156 C 48.402344 21.714844 48.394531 21.191406 48.371094 20.824219 C 48.355469 20.570312 48.332031 20.390625 48.3125 20.289062 C 48.296875 20.359375 48.277344 20.4375 48.261719 20.507812 C 48.226562 20.648438 48.203125 20.761719 48.167969 20.96875 C 48.125 21.183594 48.074219 21.492188 48.035156 21.695312 C 47.980469 21.898438 47.9375 22 47.925781 22 C 47.90625 21.996094 47.910156 21.886719 47.925781 21.78125 C 47.945312 21.6875 47.980469 21.585938 48.019531 21.382812 C 48.070312 21.171875 48.128906 20.851562 48.167969 20.609375 C 48.195312 20.472656 48.210938 20.359375 48.222656 20.269531 C 48.203125 20.3125 48.183594 20.375 48.15625 20.457031 C 48.085938 20.652344 47.964844 20.933594 47.753906 21.300781 C 47.554688 21.667969 47.257812 22.125 46.960938 22.667969 C 46.664062 23.214844 46.367188 23.851562 46.132812 24.347656 C 45.90625 24.847656 45.726562 25.199219 45.625 25.40625 C 45.386719 25.886719 45.378906 25.835938 45.363281 26.054688 C 45.347656 26.347656 45.300781 26.699219 45.296875 26.773438 C 45.285156 26.855469 45.277344 26.941406 45.269531 27.023438 C 45.285156 26.980469 45.320312 26.917969 45.367188 26.839844 Z M 40.089844 18.761719 C 40.191406 18.921875 40.359375 19.167969 40.507812 19.378906 C 40.671875 19.613281 40.816406 19.808594 40.914062 19.949219 C 41.003906 20.089844 41.050781 20.175781 41.074219 20.195312 C 41.09375 20.210938 41.097656 20.171875 41.039062 20.0625 C 40.984375 19.953125 40.867188 19.761719 40.726562 19.546875 C 40.585938 19.328125 40.410156 19.070312 40.296875 18.894531 C 40.242188 18.8125 40.203125 18.75 40.164062 18.699219 C 40.25 18.734375 40.390625 18.820312 40.554688 18.921875 C 40.757812 19.054688 40.988281 19.203125 41.351562 19.488281 C 41.71875 19.78125 42.222656 20.210938 42.667969 20.667969 C 43.117188 21.125 43.511719 21.617188 43.773438 22.015625 C 44.039062 22.410156 44.171875 22.714844 44.3125 23.0625 C 44.449219 23.417969 44.597656 23.816406 44.691406 24.179688 C 44.785156 24.539062 44.820312 24.863281 44.859375 25.199219 C 44.886719 25.542969 44.917969 25.890625 44.9375 26.140625 C 44.980469 26.671875 44.996094 26.714844 44.902344 27.277344 C 44.890625 27.324219 44.886719 27.367188 44.875 27.417969 C 44.875 27.40625 44.878906 27.398438 44.871094 27.386719 C 44.859375 27.308594 44.839844 27.195312 44.804688 27.027344 C 44.769531 26.859375 44.722656 26.640625 44.648438 26.40625 C 44.582031 26.167969 44.492188 25.917969 44.433594 25.78125 C 44.375 25.644531 44.34375 25.628906 44.34375 25.640625 C 44.339844 25.660156 44.359375 25.722656 44.390625 25.804688 C 44.414062 25.890625 44.449219 26 44.515625 26.242188 C 44.582031 26.480469 44.6875 26.863281 44.734375 27.222656 C 44.773438 27.511719 44.777344 27.789062 44.777344 27.996094 C 44.738281 28.1875 44.707031 28.367188 44.675781 28.519531 C 44.636719 28.691406 44.609375 28.832031 44.585938 28.949219 C 44.570312 28.777344 44.558594 28.597656 44.527344 28.425781 C 44.433594 27.789062 44.246094 27.144531 43.898438 26.449219 C 43.5625 25.757812 43.074219 25.007812 42.597656 24.363281 C 42.117188 23.722656 41.652344 23.175781 41.292969 22.683594 C 40.933594 22.191406 40.679688 21.734375 40.503906 21.289062 C 40.335938 20.847656 40.230469 20.414062 40.1875 20.019531 C 40.144531 19.621094 40.160156 19.273438 40.132812 19.035156 C 40.121094 18.910156 40.097656 18.824219 40.089844 18.761719 Z M 39.238281 23.867188 C 39.382812 24.132812 39.671875 24.609375 39.863281 24.941406 C 40.058594 25.269531 40.15625 25.460938 40.222656 25.578125 C 40.292969 25.695312 40.347656 25.734375 40.355469 25.714844 C 40.371094 25.699219 40.347656 25.617188 40.21875 25.371094 C 40.082031 25.113281 39.84375 24.691406 39.667969 24.375 C 39.539062 24.125 39.445312 23.945312 39.367188 23.8125 C 39.519531 23.945312 39.746094 24.1875 40.027344 24.429688 C 40.351562 24.722656 40.742188 25.039062 41.140625 25.386719 C 41.542969 25.734375 41.960938 26.113281 42.324219 26.539062 C 42.699219 26.964844 43.015625 27.433594 43.246094 27.851562 C 43.484375 28.265625 43.640625 28.632812 43.761719 29.109375 C 43.882812 29.578125 43.976562 30.15625 44.007812 30.675781 C 44.035156 31.1875 44.003906 31.640625 43.972656 31.941406 C 43.945312 32.34375 44 32.617188 43.914062 32.972656 C 43.90625 32.828125 43.902344 32.613281 43.875 32.375 C 43.855469 32.132812 43.820312 31.863281 43.730469 31.539062 C 43.644531 31.21875 43.5 30.851562 43.414062 30.632812 C 43.316406 30.414062 43.265625 30.355469 43.234375 30.332031 C 43.203125 30.316406 43.195312 30.34375 43.238281 30.445312 C 43.285156 30.546875 43.382812 30.734375 43.472656 30.992188 C 43.5625 31.253906 43.652344 31.589844 43.699219 32.019531 C 43.738281 32.441406 43.75 32.949219 43.753906 33.25 C 43.75 33.328125 43.75 33.386719 43.746094 33.4375 C 43.671875 33.640625 43.578125 33.863281 43.464844 34.09375 C 43.25 34.519531 43.019531 34.902344 42.851562 35.222656 L 42.847656 35.230469 C 43.085938 34.59375 43.183594 34.207031 43.222656 33.828125 C 43.269531 33.433594 43.25 33.054688 43.15625 32.652344 C 43.0625 32.257812 42.886719 31.847656 42.578125 31.320312 C 42.265625 30.800781 41.8125 30.164062 41.363281 29.519531 C 40.914062 28.878906 40.472656 28.238281 40.136719 27.511719 C 39.796875 26.785156 39.558594 25.984375 39.414062 25.335938 C 39.265625 24.695312 39.203125 24.214844 39.179688 23.949219 C 39.167969 23.84375 39.164062 23.773438 39.175781 23.734375 C 39.191406 23.769531 39.210938 23.816406 39.238281 23.867188 " fill-opacity="1" fill-rule="evenodd"/></g></g></g></g></g></g></g></g></svg>